<?xml version="1.0" standalone="no"?>
<!DOCTYPE svg PUBLIC "-//W3C//DTD SVG 20010904//EN"
 "http://www.w3.org/TR/2001/REC-SVG-20010904/DTD/svg10.dtd">
<svg version="1.0" xmlns="http://www.w3.org/2000/svg"
 width="300.000000pt" height="300.000000pt" viewBox="0 0 300.000000 300.000000"
 preserveAspectRatio="xMidYMid meet">
<metadata>
Created by potrace 1.10, written by Peter Selinger 2001-2011
</metadata>
<g transform="translate(0.000000,300.000000) scale(0.100000,-0.100000)"
fill="#1f1f1f" stroke="none">
<path d="M1436 2688 c-13 -18 -16 -52 -16 -160 l0 -138 -34 0 -34 0 -3 85 c-4
90 -13 109 -59 120 -18 4 -34 0 -53 -15 -25 -20 -27 -26 -27 -104 l0 -83 -51
-5 c-28 -3 -58 -13 -67 -22 -9 -9 -40 -81 -68 -159 l-51 -142 -84 -5 c-46 -3
-89 -8 -96 -13 -6 -4 -44 -61 -83 -127 l-71 -120 -92 0 -92 0 -138 -138 c-103
-103 -137 -143 -137 -162 0 -14 38 -146 85 -295 47 -148 104 -335 127 -415 22
-80 46 -157 54 -171 14 -29 76 -50 270 -94 398 -90 823 -106 1189 -45 161 26
364 83 416 115 14 9 110 136 566 750 69 93 74 103 71 145 -4 59 -28 74 -205
133 -103 34 -181 52 -310 71 -95 15 -174 26 -177 26 -2 0 -51 72 -108 160 -56
88 -110 163 -118 167 -8 4 -68 10 -133 13 l-118 5 -65 151 c-68 158 -81 174
-139 174 l-25 0 0 131 c0 162 -11 189 -77 189 -22 0 -37 -7 -47 -22z m159
-525 c21 -49 44 -103 52 -120 l13 -33 -279 0 -280 0 40 112 c22 61 42 115 45
120 3 4 88 8 188 8 l184 0 37 -87z m534 -493 c90 -138 162 -252 160 -254 -2
-2 -80 -8 -174 -15 -648 -43 -1097 -39 -1477 15 -27 4 -48 10 -48 14 0 4 64
116 141 249 l141 241 547 0 546 0 164 -250z m-1579 -16 c0 -14 -105 -186 -116
-191 -15 -5 -94 15 -94 25 0 3 37 44 82 89 55 55 90 83 105 83 13 0 23 -3 23
-6z m1953 -109 c91 -16 216 -51 230 -65 5 -4 -43 -15 -105 -24 -62 -9 -127
-19 -144 -21 -33 -6 -29 -9 -98 98 -18 27 -18 27 5 27 13 0 63 -7 112 -15z
m-1938 -209 c221 -39 329 -47 664 -53 423 -8 928 18 1320 68 89 11 164 19 166
17 4 -5 -225 -325 -359 -502 l-121 -160 -70 -23 c-88 -29 -270 -68 -400 -84
-148 -19 -530 -16 -690 5 -250 34 -501 90 -515 116 -4 8 -44 143 -89 300 -44
157 -85 300 -91 319 -9 33 -9 33 18 27 15 -3 90 -17 167 -30z"/>
<path d="M982 1830 c-66 -30 -82 -73 -82 -233 0 -71 5 -137 10 -148 10 -17 22
-19 129 -19 91 0 121 3 130 14 9 11 11 60 9 170 -3 149 -4 155 -28 182 -27 28
-78 54 -107 54 -10 0 -37 -9 -61 -20z m96 -92 c8 -8 12 -48 12 -115 l0 -103
-45 0 -45 0 0 109 c0 78 4 111 13 114 22 10 53 7 65 -5z"/>
<path d="M1335 1830 c-67 -33 -79 -65 -83 -215 -2 -76 1 -141 7 -157 l11 -28
114 0 c63 0 121 3 130 6 14 5 16 29 16 164 0 158 0 159 -27 191 -27 32 -77 59
-110 59 -10 0 -36 -9 -58 -20z m93 -92 c8 -8 12 -48 12 -115 l0 -103 -45 0
-45 0 0 103 c0 108 7 127 45 127 12 0 26 -5 33 -12z"/>
<path d="M1695 1836 c-17 -7 -43 -28 -58 -45 -27 -32 -27 -34 -27 -185 0 -105
4 -156 12 -164 8 -8 51 -12 130 -12 106 0 118 2 128 19 5 11 10 77 10 147 0
157 -17 205 -84 235 -48 22 -70 23 -111 5z m83 -98 c8 -8 12 -48 12 -115 l0
-103 -45 0 -45 0 0 103 c0 108 7 127 45 127 12 0 26 -5 33 -12z"/>
<path d="M795 1171 c-168 -78 -164 -314 7 -385 130 -55 288 52 288 195 0 148
-162 252 -295 190z m146 -94 c21 -14 39 -38 48 -63 13 -37 12 -44 -5 -80 -13
-26 -32 -45 -58 -58 -36 -17 -43 -18 -80 -5 -82 28 -110 126 -54 186 44 48 97
55 149 20z"/>
<path d="M1938 1180 c-124 -37 -181 -194 -112 -307 35 -58 114 -103 179 -103
59 0 136 42 171 92 26 37 29 50 29 118 0 67 -3 82 -28 119 -47 71 -153 107
-239 81z m150 -125 c44 -48 45 -100 1 -149 -94 -107 -249 8 -183 135 34 67
126 74 182 14z"/>
<path d="M1355 1127 c-44 -21 -102 -90 -115 -139 -48 -175 142 -325 300 -238
66 37 103 96 108 173 4 77 -24 138 -87 182 -35 24 -53 30 -109 32 -41 2 -79
-2 -97 -10z m144 -92 c30 -15 61 -69 61 -105 0 -57 -55 -110 -115 -110 -118 0
-163 135 -70 208 32 26 83 29 124 7z"/>
</g>
</svg>
